<?xml version="1.0" encoding="utf-8"?>
<!-- Generator: Adobe Illustrator 23.1.0, SVG Export Plug-In . SVG Version: 6.00 Build 0)  -->
<svg version="1.1" id="Layer_1" xmlns="http://www.w3.org/2000/svg" xmlns:xlink="http://www.w3.org/1999/xlink" x="0px" y="0px"
	 viewBox="0 0 139.88 108.09" style="enable-background:new 0 0 139.88 108.09;" xml:space="preserve">
<style type="text/css">
	.st0{fill:#DDDDDD;}
</style>
<path class="st0" d="M69.94,6.88C43.89,6.88,22.77,28,22.77,54.05s21.12,47.17,47.17,47.17s47.17-21.12,47.17-47.17
	S95.99,6.88,69.94,6.88z M69.94,91.21c-20.53,0-37.17-16.64-37.17-37.17c0-20.53,16.64-37.17,37.17-37.17s37.17,16.64,37.17,37.17
	C107.11,74.57,90.47,91.21,69.94,91.21z"/>
<path class="st0" d="M90.64,49.14H78.56c-2.05,0-3.72-1.66-3.72-3.72V33.35c0-2.05-1.66-3.72-3.72-3.72h-2.38
	c-2.05,0-3.72,1.66-3.72,3.72v12.07c0,2.05-1.66,3.72-3.72,3.72H49.25c-2.05,0-3.72,1.66-3.72,3.72v2.38c0,2.05,1.66,3.72,3.72,3.72
	h12.07c2.05,0,3.72,1.66,3.72,3.72v12.07c0,2.05,1.66,3.72,3.72,3.72h2.38c2.05,0,3.72-1.66,3.72-3.72V62.67
	c0-2.05,1.66-3.72,3.72-3.72h12.07c2.05,0,3.72-1.66,3.72-3.72v-2.38C94.35,50.8,92.69,49.14,90.64,49.14z"/>
</svg>
